# xmcd CD database file
#
# Track frame offsets:
#	150
#	11095
#	30565
#	42739
#	59530
#	71230
#	95295
#	102685
#	115413
#	125604
#	139487
#	152570
#	164269
#	174236
#	187453
#	201102
#	214456
#	228733
#	240476
#	252498
#	273109
#	294326
#	306004
#	318009
#
# Disc length: 4394 seconds
#
# Revision: 0
# Processed by: cddbd v1.5.1PL0 Copyright (c) Steve Scherf et al.
# Submitted via: CDex 1.51
#
DISCID=71112818
DTITLE=Various Artist - Country pohoda 3
DYEAR=2002
DGENRE=Country
TTITLE0=Waldemar Matuska a Olga Blechova/Kvete mak a slunce pali
TTITLE1=Mirek Hoffmann/Ten sen jsem mival
TTITLE2=Petr Spaleny/Tak pisu psani
TTITLE3=Vera Martinova/Toulavy dziny
TTITLE4=Rangers/Neplac mala
TTITLE5=Pavel Bobek/Rokenrolu dal jsem vsechny nejslepsi sve dny
TTITLE6=Michal Tucny/Lina zena
TTITLE7=KTO/Nejhezci kraj
TTITLE8=Karel Kahovec/Chodim jen tak bosy
TTITLE9=Josef Simek/Zbyl mi jen tvuj mokasin
TTITLE10=Ladislav Vodicka/Pry ja to byl
TTITLE11=Nada Urbankova/Kdyz uz vic nesmim si prat
TTITLE12=Jiri Grossmann/Az te nahodou potkam
TTITLE13=Pavel Bobek/Country Boy
TTITLE14=Josef Simek/Matciny ruze
TTITLE15=Waldemar Matuska/Bez, Baro, spat
TTITLE16=Hana Horecka/Podzim uz se zase blizi
TTITLE17=Mirek Hoffmann/Z cesty dlouhy se zas vracim
TTITLE18=Petr Spaleny/Kdyz jsme byli mali kluci
TTITLE19=Pavel Brumer a Jindra Malik/Cesty domu
TTITLE20=Nada Urbankova/Proste louceni
TTITLE21=Poutnici/Blues o touze letat
TTITLE22=Michal Tucny/Rad se brouzdam rosou
TTITLE23=Rangers/Dej boze muj
EXTD=YEAR: 2002
EXTT0=
EXTT1=
EXTT2=
EXTT3=
EXTT4=
EXTT5=
EXTT6=
EXTT7=
EXTT8=
EXTT9=
EXTT10=
EXTT11=
EXTT12=
EXTT13=
EXTT14=
EXTT15=
EXTT16=
EXTT17=
EXTT18=
EXTT19=
EXTT20=
EXTT21=
EXTT22=
EXTT23=
PLAYORDER=
